<?xml version="1.0" encoding="UTF-8"?>
<svg id="Capa_2" data-name="Capa 2" xmlns="http://www.w3.org/2000/svg" viewBox="0 0 101.4 13.95">
  <defs>
    <style>
      .cls-1 {
        fill: #fff;
        stroke-width: 0px;
      }
    </style>
  </defs>
  <g id="Capa_1-2" data-name="Capa 1">
    <g>
      <g>
        <path class="cls-1" d="m0,13.71L5.92.29h3.74s5.94,13.42,5.94,13.42h-3.95S7.02,2.15,7.02,2.15h1.5S3.87,13.71,3.87,13.71H0Zm3.24-2.63l.98-2.78h6.56s.98,2.78.98,2.78H3.24Z"/>
        <path class="cls-1" d="m14.74,13.71V.29s3.12,0,3.12,0l5.54,9.12h-1.65S27.18.29,27.18.29h3.12s.02,13.42.02,13.42h-3.49s-.04-8.11-.04-8.11h.59s-4.04,6.79-4.04,6.79h-1.69s-4.16-6.79-4.16-6.79h.73s0,8.11,0,8.11h-3.49Z"/>
        <path class="cls-1" d="m29.44,13.71L35.36.29h3.74s5.94,13.42,5.94,13.42h-3.95s-4.64-11.56-4.64-11.56h1.5s-4.64,11.56-4.64,11.56h-3.87Zm3.24-2.63l.98-2.78h6.56s.98,2.78.98,2.78h-8.51Z"/>
        <path class="cls-1" d="m43.51,13.71v-2.4s7.88-9.37,7.88-9.37l.46,1.36h-8.18s0-3.01,0-3.01h11.56s0,2.4,0,2.4l-7.9,9.37-.46-1.36h8.64s0,3.01,0,3.01h-12Z"/>
        <path class="cls-1" d="m69.39,13.71V.29s3.12,0,3.12,0l7.38,8.93h-1.48s0-8.93,0-8.93h3.72s0,13.42,0,13.42h-3.12s-7.4-8.93-7.4-8.93h1.48s0,8.93,0,8.93h-3.7Z"/>
        <path class="cls-1" d="m82.88,13.71V.29s3.8,0,3.8,0v13.42s-3.8,0-3.8,0Z"/>
        <path class="cls-1" d="m85.79,13.71L91.72.29h3.74s5.94,13.42,5.94,13.42h-3.95s-4.64-11.56-4.64-11.56h1.5s-4.64,11.56-4.64,11.56h-3.87Zm3.24-2.63l.98-2.78h6.56s.98,2.78.98,2.78h-8.51Z"/>
      </g>
      <path class="cls-1" d="m67.76,11.51c-.51-.23-1.01-.5-1.53-.71-.18-.07-.27-.03-.34.14-.09.22-.23.41-.35.62-.24.41-.62.58-1.06.68-.27.06-.57.05-.79.27-.06.06-.09,0-.09-.05,0-.16-.09-.15-.2-.12-.22.06-.42.15-.61.28-.03.02-.07.06-.11.02-.04-.03-.02-.08,0-.11.03-.1.09-.18.17-.25.07-.06.15-.09.2-.19-.53.11-1.04.06-1.59.02.15-.21.38-.23.59-.32-.11-.11-.27-.07-.39-.19.29-.15.59-.22.89-.22.3,0,.59.02.89.04.24.02.42-.08.55-.27.2-.27.38-.56.61-.81.08-.09.04-.14-.03-.2-.21-.17-.45-.3-.7-.4-.26-.1-.51-.21-.78-.29-.37-.11-.66-.31-.81-.68-.08-.19-.19-.26-.41-.23-1.16.16-2.3.03-3.44-.19-.39-.08-.6-.38-.5-.76,0-.03.02-.09.03-.09.21.03.1-.15.16-.24.09.02.06.15.15.17.08-.09,0-.21.07-.3.1-.01.09.13.19.14.02-.07.05-.15.08-.24.15.21.39.18.59.25.45.16.89-.01,1.32-.15.43-.14.85-.32,1.27-.47.13-.05.14-.1.03-.18-.07-.05-.13-.12-.2-.17-.11-.09-.22-.12-.36-.07-.14.05-.17.15-.15.28-.09.03-.09-.06-.14-.08-.09-.04-.19-.15-.27.02-.04.09-.08.05-.11,0-.03-.04-.06-.09-.09-.13-.1.03-.05.16-.15.18-.06-.04-.04-.11-.04-.17,0-.16-.17-.15-.23-.25-.02-.04-.04.08-.11.11-.1-.21-.29-.18-.48-.16-.11.01,0,.12-.07.17-.1-.01-.24-.24-.3.04-.08,0-.08-.06-.09-.1-.01-.1-.04-.19-.16-.2-.13-.01-.03.14-.12.18-.07-.01-.08-.09-.08-.14-.01-.15-.08-.27-.21-.35-.09-.05-.13-.22-.3-.06-.09.09-.3.02-.3-.21-.07.04,0,.13-.08.13-.06,0-.07-.06-.09-.1-.01-.02-.02-.07-.03-.07-.31.03-.08-.17-.09-.25-.01-.07,0-.16,0-.24-.02-.27.11-.5.35-.61.2-.09.43-.09.64-.16.12-.04.23.07.28.19.05.11.13.17.24.19.07.01.15.04.21.08.47.32.98.24,1.48.12.17-.04.32-.01.48.02.3.06.35.04.49-.23.12-.21.36-.29.64-.17.18.08.33.12.5-.04.1-.09.36,0,.44.18.15.35.45.46.78.54.23.06.47.11.66.28.08.07.23.08.34.11.15.04.27.12.29.3.01.11.09.14.18.16.23.05.46.1.51.38.01.06.09.08.15.09.23.08.4.23.47.47.03.11.1.15.21.13.21-.03.43-.09.6.11.05.06.09-.02.12-.06.12-.13.27-.22.45-.25.17-.03.19-.02.22.17.12-.12.26-.2.42-.25.1-.03.21-.08.29.05.04.06.08.02.12,0,.07-.03.15-.06.22-.09-.04-.86-.23-1.65-.55-2.38-.38-.84-.9-1.58-1.56-2.2-.66-.63-1.45-1.11-2.36-1.46C64.03.17,63.04,0,61.97,0s-2.06.17-2.97.52c-.91.34-1.69.83-2.36,1.47-.66.63-1.19,1.37-1.56,2.21-.38.84-.57,1.76-.57,2.76s.19,1.94.57,2.79c.38.85.9,1.59,1.56,2.22.66.63,1.45,1.12,2.37,1.47.91.34,1.9.52,2.96.52s2.06-.17,2.97-.52c.91-.34,1.7-.83,2.37-1.46.16-.15.31-.31.46-.47Z"/>
    </g>
  </g>
</svg>