<?xml version="1.0" encoding="UTF-8"?>
<svg id="Capa_2" data-name="Capa 2" xmlns="http://www.w3.org/2000/svg" viewBox="0 0 64.92 14.4">
  <defs>
    <style>
      .cls-1 {
        fill: #fff;
        stroke-width: 0px;
      }
    </style>
  </defs>
  <g id="Capa_1-2" data-name="Capa 1">
    <g>
      <g>
        <path class="cls-1" d="m5.58,4.68c.28-.3.62-.53,1.01-.69s.83-.24,1.32-.24c.62,0,1.17.14,1.66.42.49.28.94.68,1.35,1.19l2.93-2.62c-.68-.89-1.54-1.57-2.59-2.05S9.02,0,7.67,0c-1.1,0-2.12.17-3.06.52-.94.35-1.75.84-2.44,1.49-.69.64-1.22,1.4-1.6,2.28C.19,5.17,0,6.14,0,7.2s.19,2.03.57,2.91c.38.88.91,1.64,1.6,2.28.69.64,1.5,1.14,2.44,1.49.94.35,1.96.52,3.06.52,1.35,0,2.55-.24,3.59-.72s1.91-1.16,2.59-2.04l-2.93-2.62c-.41.51-.86.91-1.35,1.19-.49.28-1.05.42-1.66.42-.49,0-.92-.08-1.32-.24s-.73-.39-1.01-.69c-.28-.3-.5-.67-.66-1.09-.16-.43-.24-.9-.24-1.43s.08-1,.24-1.43c.16-.43.38-.79.66-1.09Z"/>
        <path class="cls-1" d="m38.85,6.77c-.45-.3-.95-.54-1.49-.73-.54-.18-1.08-.33-1.62-.43-.54-.1-1.04-.2-1.5-.3-.45-.09-.82-.21-1.09-.34-.28-.14-.41-.32-.41-.56,0-.16.06-.3.17-.43.11-.13.3-.24.56-.31.26-.08.62-.12,1.06-.12.6,0,1.22.09,1.86.26.64.17,1.3.43,1.98.77l1.4-3.36c-.72-.41-1.53-.71-2.44-.91C36.42.1,35.5,0,34.57,0c-1.42,0-2.6.21-3.55.63-.95.42-1.67.98-2.14,1.68-.48.7-.72,1.48-.72,2.33,0,.73.14,1.35.41,1.84.28.49.64.89,1.09,1.19.45.3.95.54,1.5.73.54.18,1.09.33,1.62.44.54.11,1.03.22,1.49.31.45.1.82.22,1.09.36.28.14.41.34.41.59,0,.16-.06.29-.18.4-.12.11-.3.2-.56.26-.26.06-.61.09-1.05.09-.76,0-1.54-.11-2.35-.34-.81-.23-1.54-.53-2.19-.91l-1.5,3.38c.7.42,1.58.76,2.66,1.02,1.08.26,2.19.39,3.34.39,1.43,0,2.62-.21,3.56-.64.94-.43,1.66-.99,2.13-1.69.48-.7.72-1.47.72-2.31,0-.72-.14-1.32-.41-1.81-.28-.49-.64-.88-1.09-1.18Z"/>
        <polygon class="cls-1" points="52.48 .31 39.77 .31 39.77 3.92 43.8 3.92 43.8 14.09 48.45 14.09 48.45 3.92 52.48 3.92 52.48 .31"/>
        <path class="cls-1" d="m58.9.31h-4.56s-6.02,13.77-6.02,13.77h4.72s.92-2.4.92-2.4h5.24s.92,2.4.92,2.4h4.8S58.9.31,58.9.31Zm-3.65,8.03l1.33-3.47,1.33,3.47h-2.67Z"/>
      </g>
      <g>
        <path class="cls-1" d="m19.71,4.2c-.3-.1-.57-.04-.81.14.42-.11.8-.1,1.14.25-.05-.22-.16-.34-.33-.4Z"/>
        <path class="cls-1" d="m20.35,11.81c.04.5.09,1.01.13,1.51.02.18.03.36.05.54,0,.07.05.13.13.11.08-.02.1-.08.09-.16-.02-.17-.04-.33-.07-.5-.11-.82-.21-1.64-.32-2.46,0-.04,0-.09-.06-.09-.06,0-.04.06-.04.08.03.33.05.65.08.97Z"/>
        <path class="cls-1" d="m18.69,4.65c.05.05.11.1.16.14.21.18.44.29.72.26.2-.02.4-.16.46-.36-.46.35-.89.2-1.31-.07,0,.01-.01.02-.02.03Z"/>
        <path class="cls-1" d="m17.88,6.87s.03.1.07.15c.13.15.26.29.38.44.42.5.75,1.07,1.04,1.66.24.5.78.68,1.27.42.44-.23.72-.59.85-1.07.14-.51.16-1.04.14-1.56,0-.17-.03-.33-.06-.5,0-.03,0-.07-.04-.07-.04,0-.02.05-.03.08,0,.01,0,.03,0,.04.03.35.05.71.02,1.06-.03.33-.07.67-.18.99-.09.27-.22.53-.45.72-.03.02-.05.06-.11.04.05-.16.12-.3.11-.47,0-.2-.09-.36-.2-.4.03.1.07.19.09.3.03.18.02.36-.1.51-.2.27-.58.35-.89.19-.31-.16-.43-.49-.31-.82.03-.08.06-.15.09-.23-.13.07-.18.2-.21.33,0,.03,0,.07-.04.07-.04,0-.04-.04-.06-.06-.14-.27-.3-.53-.47-.77-.24-.33-.5-.65-.78-.95-.04-.04-.09-.12-.14-.07Z"/>
        <path class="cls-1" d="m22.1,4.82c.34.22.66.47.93.77.29.33.5.7.58,1.13.1.53.11,1.06.17,1.6.07.6.13,1.2.26,1.79.18.83.48,1.62.88,2.37.03.06.07.11.15.08.07-.02.1-.07.11-.14,0-.01,0-.02,0-.03-.01-.03-.02-.06-.04-.09-.35-.7-.59-1.44-.78-2.2-.25-.99-.36-1.99-.45-3-.04-.43-.17-.84-.41-1.21-.34-.54-.84-.9-1.41-1.17-.02-.01-.05-.04-.07,0-.02.03.02.04.04.06.02.01.04.03.06.04Z"/>
        <path class="cls-1" d="m27.13,3.72c-.67-1.08-1.58-1.91-2.72-2.49-1.2-.62-2.49-.87-3.84-.86-.57,0-1.14.06-1.69.17-1.58.33-2.94,1.04-4.01,2.26-1.49,1.71-1.98,3.7-1.59,5.92.22,1.24.77,2.31,1.6,3.25.85.97,1.91,1.62,3.13,2.02.06.02.09,0,.11-.06.07-.27.2-.51.21-.8,0-.25.06-.51.05-.77,0-.08,0-.16.01-.25.06-.44.24-.83.44-1.22.14-.27.3-.54.42-.83.02-.06.04-.11.04-.17,0-.1-.06-.14-.16-.12-.05.01-.09.04-.14.05-.06.02-.13.08-.17.03-.05-.05.03-.1.06-.15.12-.2.21-.41.19-.65,0-.07-.02-.12-.1-.12q-.21,0-.21-.21s0-.02,0-.03c0-.22,0-.22-.2-.15-.08.03-.13,0-.15-.08-.03-.1-.02-.2,0-.3,0-.06.05-.14-.01-.18-.06-.04-.11.03-.16.07-.1.06-.17.04-.21-.06-.04-.09-.04-.18-.01-.27.02-.06.04-.12.04-.18-.05,0-.08.03-.11.05-.11.08-.15.07-.18-.06-.03-.12-.01-.24-.02-.35,0-.11,0-.11-.11-.07-.25.11-.28.1-.31-.18,0-.06-.02-.11-.09-.13-.05-.01-.07-.06-.09-.11-.01-.05-.03-.1-.05-.14-.04-.08-.09-.09-.17-.05-.02.01-.04.03-.06.04-.03.02-.06.03-.09.01-.04-.02-.04-.06-.04-.09,0-.05.01-.1.01-.15,0-.07-.04-.09-.1-.05-.04.02-.07.05-.11.07-.03.02-.06.02-.08,0-.02-.02-.02-.05-.01-.07.02-.08.05-.16.07-.24.02-.07.02-.11-.07-.09-.06.01-.09-.01-.08-.08.04-.23-.04-.42-.2-.59-.13-.15-.18-.33-.13-.52.02-.09.08-.14.17-.12.04,0,.08.01.12.03.28.09.56.2.82.33.3.15.57.35.86.53.04.02.07.06.12.06,0-.03-.02-.04-.04-.06-.26-.2-.53-.39-.82-.55-.3-.16-.61-.27-.93-.38-.2-.07-.23-.17-.11-.34.01-.02.02-.03.04-.05.14-.16.3-.29.5-.38.14-.06.27-.13.4-.21.07-.04.13-.05.2-.02.11.04.22.05.33.02.44-.14.88-.09,1.31.06.07.02.14.04.21.02.47-.08.88.06,1.26.33.13.09.27.13.43.11.14-.02.28,0,.41.04.05.02.1.03.14.02.26-.09.5-.05.72.09.01,0,.03.01.05.02.21.04.38.15.55.28.12.09.25.11.39.06.31-.11.62-.11.93-.07.07,0,.16.02.21.08.12.12.25.12.4.07.2-.06.4-.12.6-.16.41-.08.82-.1,1.23.01.05.01.13.02.13.07,0,.06-.09.04-.14.03-.58-.01-1.13.17-1.66.37-.11.04-.22.11-.34.14-.22.06-.43.17-.65.26-.02,0-.06.02-.05.05,0,.04.04.03.07.03.09-.01.17-.03.26-.05.57-.1,1.14-.19,1.72-.13.33.03.65.09.95.24.04.02.08.04.12.09-.73-.13-1.44-.18-2.14.01.16-.02.32-.04.48-.06.31-.04.62-.05.93.01.18.03.31.13.42.27.02.02.05.05.02.08-.03.03-.06,0-.08,0-.02,0-.04-.02-.06-.04-.1-.07-.22-.12-.34-.14-.21-.03-.41-.01-.62.04-.48.11-.91.35-1.35.57-.01,0-.02.01-.05.02.06.04.1.02.15.02.44,0,.88,0,1.32.08.32.06.63.15.85.41.15.17.23.37.3.62-.1-.05-.14-.13-.19-.19-.2-.25-.47-.39-.78-.43-.51-.06-1.02-.02-1.53.1-.07.02-.14.05-.13.14,0,.09.06.13.15.13.16,0,.33-.02.49-.03.44-.04.87,0,1.28.19.22.11.36.28.42.52,0,.04.02.08-.02.11-.05.02-.07-.02-.1-.05-.14-.16-.31-.29-.52-.35-.4-.11-.79-.08-1.19.03,0,0-.01.01-.03.03.22.02.43.04.64.07.41.05.75.24.98.59.02.03.07.07.04.11-.02.03-.07,0-.11,0,0,0-.01,0-.02,0,0,.04.03.05.05.08.09.13.17.27.2.43.02.1,0,.19-.05.28,0,.02-.02.04-.04.03-.02,0-.02-.03-.03-.05,0-.02,0-.03,0-.05-.03-.27-.11-.51-.37-.64-.42-.21-.85-.17-1.29-.07,0,0,0,.02,0,.02.07.01.13.03.2.04.22.04.42.13.59.28.43.36.71.83.92,1.33.02.05.09.13.03.16-.05.03-.09-.06-.13-.1-.27-.3-.53-.6-.82-.88-.14-.13-.29-.24-.46-.32-.17-.08-.4-.12-.52-.1.19.11.37.21.55.32.36.22.68.49.94.83.03.04.06.09.06.14,0,.02,0,.03-.01.04-.02,0-.03,0-.04-.02-.06-.05-.12-.11-.19-.16-.27-.23-.56-.43-.9-.55-.04-.01-.11-.06-.13,0-.02.04.05.07.08.1.32.23.62.5.89.79.21.23.38.48.43.79.02.1-.04.15-.1.19-.06.05-.08-.03-.12-.05-.01,0-.02-.02-.03-.02-.24-.1-.45-.26-.66-.42-.06-.04-.12-.08-.19-.09.23.24.54.38.8.59-.08.01-.08.01-.12,0-.23-.08-.47-.16-.68-.29-.02-.01-.04-.04-.06-.01-.02.02,0,.04.01.06.04.08.11.11.2.11.18.01.35.06.47.2.17.19.33.39.45.62.06.11.06.11.14.03.59-.6,1.04-1.29,1.37-2.06.37-.86.52-1.76.54-2.69,0-.48-.04-.96-.13-1.44-.15-.82-.46-1.58-.9-2.28Z"/>
        <path class="cls-1" d="m24.84,8.18c.41,0,.82.03,1.2.22-.36-.3-.77-.3-1.2-.22Z"/>
        <path class="cls-1" d="m24.81,10.32c.39.26.71.6,1.04.92-.11-.41-.76-.96-1.04-.92Z"/>
      </g>
    </g>
  </g>
</svg>