<?xml version="1.0" encoding="UTF-8"?>
<svg id="Capa_2" data-name="Capa 2" xmlns="http://www.w3.org/2000/svg" viewBox="0 0 79.84 13.76">
  <defs>
    <style>
      .cls-1 {
        fill: #fff;
        stroke-width: 0px;
      }
    </style>
  </defs>
  <g id="Capa_1-2" data-name="Capa 1">
    <g>
      <path class="cls-1" d="m0,.3h4.43s0,13.15,0,13.15H0s0-13.15,0-13.15Z"/>
      <path class="cls-1" d="m18.13.3v13.15s-3.65,0-3.65,0l-5-5.98v5.98s-4.32,0-4.32,0V.3s3.65,0,3.65,0l5,5.98V.3s4.32,0,4.32,0Z"/>
      <path class="cls-1" d="m20.59,13.39c-1.03-.24-1.88-.57-2.55-.99l1.43-3.23c.63.36,1.33.65,2.1.87.78.22,1.52.33,2.24.33.61,0,1.05-.06,1.32-.18.26-.12.39-.3.39-.54,0-.28-.17-.48-.52-.62-.34-.14-.91-.29-1.7-.45-1.01-.21-1.86-.44-2.54-.69-.68-.24-1.27-.65-1.77-1.2-.5-.56-.75-1.31-.75-2.26,0-.83.23-1.58.7-2.25.46-.68,1.16-1.21,2.08-1.6C21.94.19,23.06,0,24.37,0c.9,0,1.79.1,2.66.29.87.19,1.64.48,2.3.86l-1.33,3.21c-1.29-.65-2.51-.98-3.66-.98s-1.71.28-1.71.83c0,.26.17.46.51.59.34.13.9.27,1.67.42,1,.19,1.85.4,2.54.65.69.24,1.29.64,1.79,1.19.51.55.76,1.3.76,2.25,0,.83-.23,1.58-.7,2.25-.46.67-1.16,1.2-2.08,1.6-.92.39-2.04.59-3.35.59-1.09,0-2.15-.12-3.19-.37Z"/>
      <path class="cls-1" d="m31.38,12.12c-1.13-1.09-1.69-2.62-1.69-4.59V.3s4.43,0,4.43,0v7.1c0,.96.17,1.67.52,2.1.34.44.84.66,1.49.66s1.15-.22,1.49-.66c.34-.44.52-1.14.52-2.1V.3s4.36,0,4.36,0v7.23c0,1.97-.56,3.5-1.69,4.59-1.13,1.09-2.7,1.63-4.72,1.63s-3.59-.54-4.72-1.63Z"/>
      <path class="cls-1" d="m43.13.3h4.43s0,9.72,0,9.72h5.94s0,3.44,0,3.44h-10.37s0-13.15,0-13.15Z"/>
      <path class="cls-1" d="m62.46,11.16h-5s-.88,2.29-.88,2.29h-4.51S57.82.3,57.82.3h4.36s5.75,13.15,5.75,13.15h-4.59s-.88-2.29-.88-2.29Zm-1.22-3.19l-1.28-3.31-1.28,3.31h2.56Z"/>
      <path class="cls-1" d="m77.08,9.4c.8-.41,1.42-.97,1.84-1.67.43-.7.64-1.52.64-2.46,0-1-.24-1.88-.73-2.63-.49-.75-1.18-1.33-2.09-1.73-.9-.4-1.96-.6-3.18-.6h-6.33v13.15h4.43v-3.31s1.2,0,1.2,0l2.24,3.31h4.74s-2.76-4.06-2.76-4.06Zm-.07-.68c-.06-.13-.11-.27-.17-.4-.03-.06-.08-.12-.11-.18-.06-.1-.11-.2-.16-.3-.02-.03-.04-.06-.07-.08-.01-.01-.04-.02-.05-.04-.08-.14-.2-.25-.23-.42-.02-.13-.05-.26-.08-.38-.02-.09-.09-.17-.1-.25-.03-.14-.15-.23-.2-.35,0,0,0-.02-.01-.02-.1-.05-.19-.12-.29-.13-.1,0-.2,0-.29-.07-.03.05-.05.09-.08.13-.14.25-.37.43-.58.62-.48.45-1.02.79-1.65,1-.2.07-.4.11-.62.09-.11-.01-.2.01-.28.13-.13.19-.28.36-.48.49-.07.04-.12.12-.19.18-.07.06-.15.11-.23.17-.05.04-.1.07-.14.11-.07.07-.15.11-.25.12-.07.01-.14.03-.19.07-.17.13-.34.17-.54.1-.05-.02-.12,0-.17-.01-.12-.01-.14-.07-.07-.16.05-.06.07-.13.09-.2.02-.08.1-.15.15-.23.02-.02.05-.04.05-.07,0-.1.07-.15.13-.21.08-.07.14-.15.22-.23.07-.07.14-.14.21-.2.08-.07.17-.12.26-.17,0-.02-.01-.03-.02-.05-.12-.02-.24-.05-.36-.07-.05-.01-.11,0-.15-.03-.16-.08-.32-.16-.49-.2-.09-.02-.12-.09-.1-.19,0-.09.01-.17,0-.26-.01-.13-.04-.26-.06-.41-.08.02-.18.04-.28.06-.13.03-.26.06-.39.08-.08.01-.16,0-.24-.01-.29-.06-.57-.07-.86-.01-.03,0-.07,0-.1,0,0-.04,0-.08.01-.11.07-.11.11-.24.18-.35.1-.16.25-.28.38-.42.02-.02.04-.03.07-.04.15-.06.3-.12.44-.19.28-.13.57-.16.87-.15.2,0,.34-.05.44-.23.1-.18.24-.33.35-.5.18-.28.45-.48.69-.7.18-.16.37-.3.56-.44.16-.11.32-.17.49-.23.07-.02.14-.06.21-.1.1-.05.2-.1.3-.15-.01-.18-.18-.25-.3-.35-.05-.05-.11-.09-.16-.14-.03-.02-.05-.05-.08-.07-.16-.11-.27-.25-.32-.43,0-.03-.03-.06-.06-.08-.15-.09-.3-.17-.38-.34,0-.02-.04-.02-.06-.03-.11-.05-.23-.09-.34-.14-.04-.02-.06-.07-.09-.1.04-.03.07-.06.11-.08.05-.02.11-.03.17-.04.07-.01.14-.03.21-.08.07-.06.17-.05.26-.02.14.05.28.1.43.15.07.02.15,0,.21.04.24.12.47.23.7.38.42.28.54.7.64,1.14.02.08.05.11.12.12.27.05.53.1.8.15.04,0,.09.01.12.04.08.06.15.03.23.01.2-.06.37-.16.47-.35.1-.19.27-.3.46-.37.04-.02.07-.05.09-.09.08-.14.26-.19.45-.11.04.02.09.02.14.02.08,0,.17,0,.25,0,.08.01.13.07.12.16,0,.04,0,.08-.01.11-.02.11-.06.22,0,.34.04.07,0,.16-.06.23-.04.05-.08.11-.11.17-.06.13-.16.22-.28.28-.12.06-.25.11-.37.17-.23.11-.44.25-.57.47-.07.11-.11.23-.09.37.04.21,0,.42-.05.63-.02.07,0,.1.06.13.14.07.29.11.45.12.38.03.68.23.93.51.2.22.35.48.42.77.07.28.16.56.12.86,0,.07.02.15.01.22,0,.08-.02.17-.04.25-.01.08-.03.15-.04.23-.02.19-.13.33-.26.45-.05.04-.11.02-.15-.06Z"/>
    </g>
  </g>
</svg>