<?xml version="1.0" encoding="UTF-8"?>
<svg id="Capa_2" data-name="Capa 2" xmlns="http://www.w3.org/2000/svg" viewBox="0 0 36.73 61.92">
  <defs>
    <style>
      .cls-1 {
        fill: #fff;
        stroke-width: 0px;
      }
    </style>
  </defs>
  <g id="Capa_1-2" data-name="Capa 1">
    <g>
      <g>
        <path class="cls-1" d="m1.43,61.55c-.58-.24-1.06-.6-1.43-1.06l1.5-1.77c.52.67,1.08,1.01,1.68,1.01.4,0,.7-.12.91-.36.21-.24.31-.59.31-1.05v-4.17H1.04v-2.12h6.07v6.13c0,1.26-.32,2.2-.95,2.83-.63.63-1.56.94-2.79.94-.71,0-1.36-.12-1.94-.37Z"/>
        <path class="cls-1" d="m16.76,59.6v2.12h-7.79v-9.7h7.61v2.12h-4.89v1.64h4.31v2.05h-4.31v1.77h5.07Z"/>
        <path class="cls-1" d="m27.04,57.57c.31.41.47.91.47,1.49,0,.85-.34,1.51-1.03,1.97-.68.46-1.67.69-2.97.69h-5.24v-9.7h4.96c1.24,0,2.18.23,2.83.69.65.46.97,1.07.97,1.85,0,.46-.11.88-.34,1.24-.23.37-.55.65-.96.87.55.19.99.5,1.3.91Zm-6.04-3.57v1.87h1.89c.92,0,1.39-.31,1.39-.94s-.46-.93-1.39-.93h-1.89Zm3.74,4.75c0-.66-.48-.98-1.44-.98h-2.3v1.97h2.3c.96,0,1.44-.33,1.44-.98Z"/>
        <path class="cls-1" d="m36.73,59.6v2.12h-7.79v-9.7h7.61v2.12h-4.89v1.64h4.31v2.05h-4.31v1.77h5.07Z"/>
      </g>
      <g>
        <g>
          <polygon class="cls-1" points="25.01 0 25.01 1.93 23.09 3.86 15.37 3.86 15.37 7.71 19.23 7.71 17.31 9.64 7.66 9.64 7.66 0 25.01 0"/>
          <polygon class="cls-1" points="32.73 0 32.73 3.86 30.8 3.86 28.87 1.93 28.87 0 32.73 0"/>
        </g>
        <polygon class="cls-1" points="30.8 3.86 28.87 3.86 28.87 1.93 30.8 3.86"/>
        <polygon class="cls-1" points="25.01 1.93 25.01 3.86 23.09 3.86 25.01 1.93"/>
        <polygon class="cls-1" points="25.01 7.71 25.01 17.36 23.08 19.29 23.08 9.64 17.31 9.64 19.23 7.71 25.01 7.71"/>
        <polygon class="cls-1" points="32.73 7.71 32.73 21.21 28.87 17.35 28.87 7.71 32.73 7.71"/>
        <path class="cls-1" d="m31.66,35.57c-.69,1.67-1.64,3.2-2.79,4.56v-7.35l2.79,2.79Z"/>
        <path class="cls-1" d="m20.85,36.95l-8.93,8.93c-2.9-.63-5.53-1.99-7.69-3.87l5.37-5.37c1.61,1.21,3.61,1.93,5.79,1.93.37,0,.73-.02,1.09-.06,1.52-.17,3.06-.69,4.34-1.54.01,0,.02-.02.04-.02Z"/>
        <path class="cls-1" d="m25.02,32.78v10.74c-.62.4-1.26.76-1.93,1.08-2.26,1.08-4.79,1.68-7.47,1.68-.08,0-.16,0-.24,0h0c-1.19-.02-2.35-.15-3.46-.39l8.93-8.93,1.53-1.53,2.64-2.64Z"/>
        <path class="cls-1" d="m32.73,21.21v10.64c-.04.26-.09.52-.15.78-.22,1.01-.53,2-.92,2.94l-2.79-2.79v-15.43l3.86,3.86Z"/>
        <path class="cls-1" d="m25.02,27.13v1.49c0,.1,0,.2,0,.31s0,.21,0,.31v3.54l-2.64,2.64c.47-.74.71-1.61.71-2.61v-13.52l1.93-1.93v3.12h0v6.65h0Z"/>
      </g>
    </g>
  </g>
</svg>