<?xml version="1.0" encoding="UTF-8"?>
<svg id="Capa_2" data-name="Capa 2" xmlns="http://www.w3.org/2000/svg" xmlns:xlink="http://www.w3.org/1999/xlink" viewBox="0 0 231.19 356.51">
  <defs>
    <style>
      .cls-1 {
        filter: url(#drop-shadow-1);
      }

      .cls-2 {
        fill: #f9b233;
        stroke-width: 0px;
      }
    </style>
    <filter id="drop-shadow-1" filterUnits="userSpaceOnUse">
      <feOffset dx="9" dy="2"/>
      <feGaussianBlur result="blur" stdDeviation="5"/>
      <feFlood flood-color="#010101" flood-opacity=".58"/>
      <feComposite in2="blur" operator="in"/>
      <feComposite in="SourceGraphic"/>
    </filter>
  </defs>
  <g id="Capa_1-2" data-name="Capa 1">
    <g class="cls-1">
      <g>
        <g>
          <g>
            <path class="cls-2" d="m4.63,0h19.19v89.69h24.44v19.19H4.63V0Z"/>
            <path class="cls-2" d="m58.49,0h19.19v89.69h24.44v19.19h-43.63V0Z"/>
            <path class="cls-2" d="m139.23,0c15.35,0,26.48,11.13,26.48,26.48v82.4h-19.19v-37.62h-14.97v37.62h-19.19V26.48c0-15.61,11.39-26.48,26.87-26.48Zm7.29,52.07v-17.27c0-6.4,2.05-15.61-7.29-15.61-6.91,0-7.8,3.84-7.8,9.85,0,7.68,0,15.35.13,23.03h14.97Z"/>
          </g>
          <g>
            <path class="cls-2" d="m80.09,232.73v-82.27c0-15.61,11.39-26.48,26.87-26.48,6.65,0,12.41,2.05,16.89,5.63,4.61-3.58,10.49-5.63,17.27-5.63,15.35,0,26.48,11.13,26.48,26.48v82.27h-19.19v-73.95c0-6.4,2.05-15.61-7.29-15.61-5.76,0-7.42,2.69-7.68,7.29v71.39h-19.19v-72.03c-.38-3.71-1.92-6.65-7.29-6.65-6.91,0-7.8,3.84-7.8,9.72,0,26.61.13,53.23.13,79.84h-19.19Z"/>
            <path class="cls-2" d="m204.71,123.85c15.35,0,26.48,11.13,26.48,26.48v82.4h-19.19v-37.62h-14.97v37.62h-19.19v-82.4c0-15.61,11.39-26.48,26.87-26.48Zm7.29,52.07v-17.27c0-6.4,2.05-15.61-7.29-15.61-6.91,0-7.8,3.84-7.8,9.85,0,7.68,0,15.35.13,23.03h14.97Z"/>
          </g>
          <g>
            <path class="cls-2" d="m4.63,356.25v-108.5h22.01c18.3,0,31.35,13.05,31.35,31.35v45.93c0,18.3-13.05,31.35-31.35,31.35h-12.41v-.13H4.63Zm19.19-89.31v70.24c8.7,0,13.43-1.28,14.97-10.88v-47.21c0-6.91-3.84-11.77-10.88-12.15h-4.09Z"/>
            <path class="cls-2" d="m68.22,274.24c0-15.61,11.39-26.61,26.87-26.61s26.48,11.13,26.48,26.61v55.66c0,15.61-11.39,26.48-26.87,26.48s-26.48-11.13-26.48-26.48v-55.66Zm26.48,62.95c4.99,0,7.68-2.3,7.68-7.29v-55.66c0-4.86-2.43-7.42-7.29-7.42s-7.68,2.3-7.68,7.42v55.66c0,4.73,2.56,7.29,7.29,7.29Z"/>
            <path class="cls-2" d="m131.81,279.1c0-15.87,9.34-31.47,26.74-31.47,11.39,0,20.98,8.19,24.69,18.68,1.41,4.09,1.92,8.44,2.05,12.79h-19.19c-.13-4.48-1.79-12.28-7.55-12.28s-7.55,7.55-7.55,12.28c0,3.97.51,8.19,3.45,11,2.43,2.3,7.42,4.09,10.49,5.5,13.43,6.01,20.22,14.2,20.22,29.43,0,11.64-5.12,23.8-16.12,28.92-3.33,1.54-6.91,2.56-10.62,2.56-11.52,0-20.98-7.8-24.57-18.55-1.41-4.22-1.92-8.57-2.05-12.92h19.19c.13,4.61,1.41,12.28,7.42,12.28.64,0,1.41-.26,2.05-.51,4.35-2.05,5.5-7.42,5.5-11.77,0-2.17-.26-4.86-1.41-6.91-4.73-8.7-32.75-5.89-32.75-39.02Z"/>
          </g>
        </g>
        <g>
          <polygon class="cls-2" points="0 217.16 5.47 222.63 26.44 201.66 47.42 222.63 52.89 217.16 26.44 190.72 0 217.16"/>
          <polygon class="cls-2" points="26.44 176 47.42 196.98 52.89 191.51 26.44 165.06 0 191.51 5.47 196.98 26.44 176"/>
          <polygon class="cls-2" points="26.44 150.35 47.42 171.32 52.89 165.85 26.44 139.41 0 165.85 5.47 171.32 26.44 150.35"/>
        </g>
      </g>
    </g>
  </g>
</svg>