<?xml version="1.0" encoding="UTF-8"?>
<svg id="Capa_2" data-name="Capa 2" xmlns="http://www.w3.org/2000/svg" viewBox="0 0 69.17 14.43">
  <defs>
    <style>
      .cls-1 {
        fill: #fff;
        stroke-width: 0px;
      }
    </style>
  </defs>
  <g id="Capa_1-2" data-name="Capa 1">
    <g>
      <rect class="cls-1" x="12.58" y=".47" width="3.81" height="13.48"/>
      <polygon class="cls-1" points="21.08 8.53 27.07 8.53 27.07 5.69 21.08 5.69 21.08 3.44 27.88 3.44 27.88 .47 17.33 .47 17.33 13.96 28.13 13.96 28.13 10.99 21.08 10.99 21.08 8.53"/>
      <path class="cls-1" d="m39.9,8.1c.48-.73.72-1.62.72-2.66s-.24-1.9-.72-2.65c-.48-.75-1.17-1.33-2.07-1.72-.9-.4-1.96-.6-3.2-.6h-6.14v13.48h3.81v-3.58s2.06,0,2.06,0l2.44,3.58h4.08s-2.91-4.24-2.91-4.24c.82-.39,1.47-.92,1.92-1.61Zm-3.71-4.09c.4.35.6.83.6,1.43s-.2,1.12-.6,1.46c-.4.35-1,.52-1.79.52h-2.1s0-3.95,0-3.95h2.1c.8,0,1.39.18,1.79.53Z"/>
      <path class="cls-1" d="m52.37,8.1c.48-.73.72-1.62.72-2.66s-.24-1.9-.72-2.65c-.48-.75-1.17-1.33-2.07-1.72-.9-.4-1.96-.6-3.2-.6h-6.14v13.48h3.81v-3.58s2.06,0,2.06,0l2.44,3.58h4.08s-2.91-4.24-2.91-4.24c.82-.39,1.47-.92,1.92-1.61Zm-3.71-4.09c.4.35.6.83.6,1.43s-.2,1.12-.6,1.46c-.4.35-1,.52-1.79.52h-2.1s0-3.95,0-3.95h2.1c.8,0,1.39.18,1.79.53Z"/>
      <path class="cls-1" d="m5.85,14.43c-1.15,0-2.25-.14-3.3-.43-1.05-.28-1.9-.64-2.55-1.08l1.29-2.91c.62.4,1.34.72,2.15.98s1.62.39,2.43.39c.55,0,.99-.05,1.32-.14.32-.09.56-.22.71-.4.15-.17.23-.38.23-.61,0-.3-.15-.55-.44-.72-.29-.18-.67-.33-1.14-.46-.47-.13-.98-.24-1.53-.36-.55-.11-1.11-.26-1.67-.45-.57-.18-1.08-.43-1.55-.73-.46-.3-.84-.7-1.12-1.19-.28-.49-.43-1.1-.43-1.84,0-.82.22-1.57.67-2.24.45-.67,1.13-1.22,2.04-1.63C3.88.21,5.02,0,6.38,0c.91,0,1.81.1,2.69.31.88.21,1.65.51,2.33.92l-1.19,2.89c-.66-.37-1.31-.64-1.96-.81-.65-.17-1.28-.26-1.88-.26-.54,0-.98.06-1.31.18-.33.12-.57.27-.71.46-.15.19-.22.38-.22.59,0,.32.15.56.44.74.29.18.67.32,1.13.44.46.11.97.23,1.54.35.56.12,1.12.27,1.67.45.55.18,1.07.42,1.54.71.47.3.85.69,1.14,1.17.29.48.44,1.09.44,1.81,0,.81-.23,1.55-.68,2.23-.46.68-1.14,1.23-2.05,1.64-.91.41-2.05.61-3.43.61Z"/>
      <path class="cls-1" d="m59.06,13.78c-.05-.1-.04-.18.03-.25.1-.11.14-.24.13-.39-.01-.18.05-.33.14-.48.02-.03.06-.06.04-.1-.02-.04-.06-.02-.09-.01-.03,0-.06,0-.07-.02-.01-.03.01-.05.03-.07.11-.1.22-.21.3-.35.04-.06.08-.12.05-.21-.01-.05.02-.08.06-.1.04-.02.08-.04.12-.06-.09-.08-.09-.09-.03-.18.02-.03.04-.06.07-.09.05-.06.1-.11-.03-.12-.07,0-.04-.06-.01-.09.05-.07.11-.13.16-.2.04-.05.04-.09-.04-.1-.1-.01-.08-.06-.04-.12.09-.14.18-.28.24-.44.03-.08.05-.16-.01-.24-.03-.04-.02-.08.02-.11.04-.03.08-.06.12-.1.02-.01.04-.04.02-.05-.12-.07-.03-.13,0-.19.03-.05.07-.1-.04-.1-.05,0-.04-.04-.03-.07.03-.05.06-.09.08-.13.1-.19.07-.24-.14-.27-.2-.03-.39-.08-.58-.14-.07-.02-.14-.05-.21-.06-.12-.03-.23-.02-.34.04-.12.06-.25.1-.38.12-.22.04-.41-.03-.57-.19-.11-.11-.22-.23-.35-.33-.13-.09-.17-.31-.1-.49.04-.09.09-.17.13-.26.04-.06.05-.12.01-.19-.01-.03-.02-.05-.03-.08-.06-.17-.03-.26.12-.36.22-.15.45-.26.68-.38.29-.16.6-.28.91-.39.14-.05.22-.08.17-.26-.03-.11.04-.2.13-.26.14-.11.31-.15.48-.18.08-.01.13-.03.13-.13,0-.05.03-.07.08-.06.05,0,.07-.02.03-.05-.14-.13-.17-.32-.21-.49-.12-.47-.12-.94-.04-1.41.02-.15.09-.17.2-.08.43.34.71.79.88,1.31.03.1.07.2.14.28.09.1.14.11.22.01.07-.08.11-.08.17,0,.06.09.15.15.24.19.03.01.05.03.08.01.03-.02.02-.05,0-.08-.1-.33-.14-.66-.15-1,0-.25.03-.49.04-.73,0-.05,0-.12.07-.14.07-.03.11.02.16.06.62.55.98,1.25,1.09,2.07,0,.06.02.12.02.18.03.22.13.38.33.48.04.02.1.03.09.1-.01.05-.07.04-.11.05-.02,0-.06,0-.06.03,0,.03.03.04.05.05.14.08.29.11.44.14.06.01.14,0,.14.08,0,.06-.08.07-.13.09-.06.02-.12.04-.18.06.06.08.16.08.23.13.03.02.07.03.07.07,0,.04-.04.04-.07.06-.05.03-.16.01-.16.07,0,.07.1.05.15.08.06.03.05.07,0,.1-.09.05-.09.11-.05.19.05.11.07.23.12.34.05.14.13.26.25.35.03.02.07.05.04.09-.02.04-.06.02-.09.02-.07-.01-.14-.03-.21-.05-.02,0-.05-.02-.06,0-.02.02,0,.05,0,.07.03.07.09.11.16.13.03,0,.07,0,.07.05,0,.03-.03.05-.06.06-.13.05-.15.1-.06.21.04.05.1.09.15.14.02.02.04.03.03.05-.01.03-.04.03-.06.03-.05,0-.12-.04-.14.01-.02.05.07.07.1.1.02.03.06.05.04.1-.01.04-.06.03-.09.03-.08,0-.09.03-.04.09.06.08.13.16.21.23.02.02.05.04.04.07,0,.03-.05.03-.07.04-.04,0-.07,0-.11,0-.09,0-.1.03-.06.11.03.06.09.1.15.13.03.02.06.03.05.07,0,.04-.05.03-.07.04-.04.01-.11-.02-.1.06,0,.07.06.09.13.1.04,0,.11-.04.13.02.02.06-.06.08-.1.11-.13.1-.14.13-.05.27.04.06.02.11,0,.16-.03.06-.04.12-.02.18.05.17.06.35.08.53,0,.02,0,.04,0,.06-.1.28-.08.57-.12.86-.05.34-.11.7-.08,1.05.01.14.07.26.17.35.05.05.08.11.08.18,0,.06.03.11.07.15h.62s1.91,0,1.91,0h2.05S63.2.51,63.2.51h-3.76s-5.95,13.48-5.95,13.48h3.57s.32,0,.32,0h1.74c0-.07-.02-.14-.06-.21Z"/>
    </g>
  </g>
</svg>